<?xml version="1.0" standalone="no"?>
<!DOCTYPE svg PUBLIC "-//W3C//DTD SVG 20010904//EN"
 "http://www.w3.org/TR/2001/REC-SVG-20010904/DTD/svg10.dtd">
<svg version="1.0" xmlns="http://www.w3.org/2000/svg"
 width="700.000000pt" height="700.000000pt" viewBox="0 0 700.000000 700.000000"
 preserveAspectRatio="xMidYMid meet">
<metadata>
Created by potrace 1.11, written by Peter Selinger 2001-2013
</metadata>
<g transform="translate(0.000000,700.000000) scale(0.100000,-0.100000)"
fill="#000000" stroke="none">
<path d="M1406 5473 c10 -111 39 -242 75 -338 38 -99 104 -224 122 -230 7 -2
233 -25 502 -50 270 -25 508 -50 530 -55 24 -4 -167 -8 -463 -9 l-503 -1 37
-57 c66 -103 147 -206 243 -305 l93 -98 447 -1 446 -1 -380 -36 c-209 -19
-382 -36 -384 -38 -13 -11 231 -190 379 -278 l128 -76 308 84 c169 47 309 84
311 82 2 -2 -100 -52 -227 -111 -126 -60 -230 -112 -230 -116 0 -5 29 -25 66
-45 36 -20 64 -37 62 -38 -2 -1 -126 5 -275 13 -266 14 -273 14 -295 -5 -19
-16 -20 -16 -9 -1 13 16 12 17 -15 7 -16 -7 -190 -72 -387 -147 l-358 -135
-152 4 c-94 3 -167 10 -192 19 l-40 14 -3 95 c-3 106 16 212 53 297 23 51 24
52 95 73 65 19 74 26 108 73 61 84 181 282 173 285 -16 6 -378 -151 -403 -175
-46 -44 -84 -131 -163 -377 -77 -238 -77 -239 -61 -273 18 -37 104 -133 147
-164 14 -10 92 -34 173 -53 l147 -35 332 129 c183 70 333 127 335 125 2 -2
-19 -36 -46 -76 -75 -113 -131 -220 -147 -285 -21 -80 -67 -173 -112 -224 -32
-35 -69 -56 -233 -130 l-195 -89 -2 -48 c-9 -174 -26 -389 -42 -513 l-19 -144
86 -104 85 -104 -12 -53 c-7 -29 -27 -79 -46 -110 -19 -32 -35 -59 -35 -61 0
-2 9 -8 20 -14 30 -16 92 6 131 46 23 24 33 44 37 79 3 27 11 49 19 52 19 7
93 -46 104 -75 5 -13 9 -41 9 -62 0 -34 4 -42 30 -55 16 -8 36 -15 44 -15 24
0 39 39 39 100 0 49 -4 62 -47 124 -36 52 -46 77 -44 100 5 49 49 47 149 -6
61 -33 84 -40 96 -32 48 30 41 80 -14 111 -39 22 -162 56 -243 68 -98 14 -99
14 -110 55 -13 47 -1 129 35 255 36 123 34 121 112 134 193 33 531 136 594
181 l26 18 6 -150 c4 -83 7 -214 7 -291 l0 -140 69 -81 c105 -125 277 -294
343 -337 33 -21 79 -45 103 -55 56 -21 78 -68 80 -169 1 -62 3 -70 21 -73 44
-6 113 84 114 148 0 14 -11 42 -25 62 -14 20 -25 39 -25 42 0 11 71 6 103 -8
18 -7 46 -30 64 -50 33 -38 77 -48 101 -24 17 17 15 36 -12 95 -22 47 -32 56
-93 87 -112 56 -136 90 -88 122 21 14 42 16 120 11 92 -5 95 -5 96 16 2 40 -2
52 -24 71 -32 27 -181 18 -302 -19 -136 -42 -125 -42 -192 14 -44 36 -70 68
-92 112 -17 34 -31 68 -31 76 0 7 27 46 61 86 62 73 136 191 177 282 l23 50
187 -61 c272 -89 542 -134 808 -134 108 0 111 0 138 -29 19 -20 55 -102 117
-267 49 -131 91 -239 93 -241 2 -2 65 46 140 107 l137 111 91 -86 c50 -48 101
-92 114 -97 28 -13 29 -15 8 -64 -23 -55 -16 -173 12 -211 26 -35 68 -51 92
-36 13 8 17 26 19 74 1 35 2 70 2 77 1 7 12 24 25 37 21 21 28 23 55 14 47
-16 56 -35 52 -102 -2 -42 2 -71 15 -99 15 -35 21 -38 43 -33 64 16 88 78 70
179 -7 45 -18 71 -35 87 -43 40 -28 69 36 69 21 0 33 -8 46 -29 17 -29 88 -81
110 -81 18 0 37 65 29 99 -8 39 -49 75 -118 106 -64 28 -65 41 -7 65 24 10 39
10 75 0 49 -14 75 -9 75 15 0 20 -67 93 -103 112 -62 31 -151 -6 -200 -84 -22
-34 -23 -34 -77 -29 -50 5 -100 -1 -141 -18 -10 -5 -43 16 -97 60 -71 57 -84
65 -99 54 -10 -7 -1 3 19 22 l38 35 -30 28 c-38 37 -96 148 -115 221 -8 33
-19 96 -24 142 l-10 82 35 65 c20 36 39 65 43 65 4 0 110 -63 237 -139 l229
-139 11 164 c7 91 13 167 15 169 2 2 59 7 125 11 l121 7 6 -40 c14 -83 106
-183 169 -183 75 0 87 41 33 109 -41 52 -51 81 -36 109 14 26 44 36 85 28 26
-5 36 -14 50 -47 16 -36 84 -99 108 -99 4 0 17 9 28 20 29 29 25 78 -9 132
-33 52 -72 83 -118 93 -18 3 -35 11 -39 16 -9 15 5 43 31 62 23 16 27 16 54 2
17 -8 56 -15 91 -15 54 0 60 2 60 20 0 35 -29 79 -62 96 -29 15 -91 16 -182 2
-10 -2 -21 2 -23 9 -6 16 56 83 78 83 26 0 67 20 73 36 8 21 -50 46 -119 51
-101 7 -152 -42 -162 -157 -5 -56 -6 -57 -55 -80 -27 -13 -66 -40 -87 -62
l-39 -38 -86 0 -86 0 0 53 0 54 -133 64 -134 64 -6 195 c-6 191 -32 436 -63
595 -56 283 -167 634 -202 636 -10 0 6 7 33 16 28 8 95 15 150 16 l100 2 101
-47 c55 -27 105 -48 111 -48 28 0 58 200 42 279 -28 134 -144 170 -359 110
-104 -29 -153 -57 -240 -134 l-75 -67 78 75 79 76 -42 29 c-22 17 -37 32 -33
35 24 14 74 16 114 4 l46 -14 -19 50 c-30 79 -37 88 -83 108 -51 23 -159 28
-306 16 l-95 -8 -28 51 c-46 84 -76 80 -114 -15 -13 -31 -22 -59 -20 -60 2 -2
57 -12 123 -24 66 -11 140 -27 165 -36 25 -8 32 -12 16 -9 -236 44 -300 54
-307 47 -13 -14 -85 -204 -132 -349 -61 -188 -97 -357 -105 -483 l-7 -104 -48
72 c-196 295 -370 616 -452 830 l-63 166 -58 3 c-33 1 -223 9 -424 17 -354 14
-368 15 -465 44 -55 16 -226 64 -380 106 -154 43 -342 95 -419 116 -76 22
-145 39 -153 39 -11 0 -12 -14 -7 -67z m1991 -579 c-3 -3 -12 -4 -19 -1 -8 3
-5 6 6 6 11 1 17 -2 13 -5z m-70 -10 c-3 -3 -12 -4 -19 -1 -8 3 -5 6 6 6 11 1
17 -2 13 -5z m-70 -10 c-3 -3 -12 -4 -19 -1 -8 3 -5 6 6 6 11 1 17 -2 13 -5z
m-70 -10 c-3 -3 -12 -4 -19 -1 -8 3 -5 6 6 6 11 1 17 -2 13 -5z m-150 -20 c-3
-3 -12 -4 -19 -1 -8 3 -5 6 6 6 11 1 17 -2 13 -5z m1513 -97 c0 -2 -10 -12
-22 -23 l-23 -19 19 23 c18 21 26 27 26 19z m-176 -301 c-3 -21 -8 -35 -11
-32 -2 2 -1 20 3 40 3 21 8 35 11 32 2 -2 1 -20 -3 -40z m-17 -78 c-3 -7 -5
-2 -5 12 0 14 2 19 5 13 2 -7 2 -19 0 -25z m-10 -50 c-3 -8 -6 -5 -6 6 -1 11
2 17 5 13 3 -3 4 -12 1 -19z m-10 -60 c-3 -8 -6 -5 -6 6 -1 11 2 17 5 13 3 -3
4 -12 1 -19z m-460 -1010 c-3 -8 -6 -5 -6 6 -1 11 2 17 5 13 3 -3 4 -12 1 -19z
m10 -70 c-3 -8 -6 -5 -6 6 -1 11 2 17 5 13 3 -3 4 -12 1 -19z m1141 -455 c-10
-2 -28 -2 -40 0 -13 2 -5 4 17 4 22 1 32 -1 23 -4z m-2078 -886 c0 -2 -10 -12
-22 -23 l-23 -19 19 23 c18 21 26 27 26 19z m-80 -70 c0 -2 -12 -14 -27 -28
l-28 -24 24 28 c23 25 31 32 31 24z"/>
</g>
</svg>
