<svg xmlns="http://www.w3.org/2000/svg" viewBox="0 0 466 62">
  <path d="M178.32222697 23.96155993l2.76427316-21.04237749L202.8923125.13143904l37.72580914 47.89168447.00195586 13.85331141-13.54428654.29077025z" fill="#fff"/>
  <path d="M222.58768125 0l21.0423775 2.76427316 2.7877434 21.80581236-47.89168447 37.72580914-13.85331142.00195586-.29077024-13.54428654zM0 49.64804345V17.1854365h7.88665388v25.63081016h12.56309995v6.8317968zm42.4577361 0V17.1854365H64.283107v6.60230998H50.02297801v6.14398827h13.48039532v6.28220193H50.02297802v6.73987169h15.08549921v6.6942351zm53.92060151-25.7683057v6.6942351h12.56309996v6.46474827H96.3783376V49.6481096h-7.74909217V17.18550265h21.3670492v6.6942351zm50.89451368 0V49.6481096h-7.84036534V23.87973775h-9.17034582v-6.6942351h26.18105698v6.6942351zm132.54219181 1.97143717l-4.12619926 11.1418463h8.16112534zm8.71137216 23.79687138l-2.52174731-6.37282315h-12.562448l-2.38483756 6.37282315h-8.52817387l13.61795702-32.46260696h7.61153047l13.48039531 32.46260696zm29.75758957-.00000285V17.1854365h7.88665388v25.63081016h12.56309995v6.8317968zM360.74162529 17.1853721h7.88665387v32.46260695h-7.88665387zM409.75585643 49.64804345h-7.84036534L389.62751454 17.1854365h8.8032973l7.51960533 23.01713773h.1831983l7.47396875-23.01713773h8.66573558zm33.51687415 0V17.1854365h21.8253709v6.60230998H450.8379725v6.14398827h13.48039532v6.28220193H450.8379725v6.73987169h15.08549922v6.6942351z" fill="#fff"/>
</svg>