<svg xmlns="http://www.w3.org/2000/svg" viewBox="0 0 188 32">
  <path fill="#fff" d="M6.50356594 1.8775719c-.133824 0-.265768.0025-.395561.0075-.648965.0247-1.247272.110812-1.794722.256036-.10964.02908-.217072.06075-.32261.09456-.527014.168745-1.00274.39575-1.426783.679219-.08481.0567-.167232.115541-.247891.17671l-.000353.000353c-.08052.06107-.159123.124321-.235496.189812-.153146.131294-.297732.271171-.434162.419996-.06815.07435-.13399.150804-.197958.229474l-.000353.000357c-.1919174.23601-.3647404.491099-.5187986.76527-.1540586.274172-.2891842.567304-.4051238.878593-.1932292.518815-.3332742 1.088502-.4196407 1.706545-.069093.494435-.104114 1.019657-.104114 1.57481v14.434213c0 .55517.035017 1.08074.104114 1.57517.086366.61804.2264115 1.18772.4196407 1.70655.1159396.31129.2510652.60407.4051238.87823.2054119.36557.4444744.69771.7171096.9951.136317.14871.280802.28881.433807.42h.000355c.07644.0656.154908.12906.235496.19017h.000353c.241918.18343.502423.3469.781562.48976.255099.13055.527099.24272.813078.33854.02694.009.05282.0193.08003.028h.000354c.73774.23619 1.575905.35767 2.512539.35767.936909 0 1.775-.12135 2.512896-.35767.316214-.10124.613883-.22362.893113-.36653.744604-.38105 1.357243-.90838 1.835448-1.57196.23909-.3318.444627-.69767.61618-1.09638.08578-.19935.162819-.40659.231603-.62221.03445-.10796.06687-.21773.09703-.32969.06028-.22375.111962-.45525.155109-.69481.02157-.11971.04081-.24113.05809-.36475.06909-.49443.103761-1.02.103761-1.57517v-3.687911h-4.124184v3.965171c0 .24788-.01347.47595-.04003.68524-.06638.52303-.213612.92903-.43062 1.23485l-.000354.00035c-.105286.14829-.228894.27015-.365815.37325-.145459.10948-.306193.19729-.484446.26029-.138469.0489-.286358.0846-.443016.108-.15666.0234-.321969.0344-.495426.0344-.173516 0-.339079-.0109-.49578-.0344-.156698-.0234-.304526-.0591-.443014-.108h-.000354c-.207611-.0734-.393924-.17681-.556689-.31376h-.000356c-.108635-.0914-.206299-.1977-.293217-.32013-.04344-.0612-.08407-.12618-.12182-.19548-.07551-.13864-.1395-.29387-.191229-.46674-.103463-.34578-.157941-.76209-.157941-1.25787V8.5791089c0-.123928.0032-.242878.0099-.357315.02692-.45797.107094-.84057.234787-1.155876.03189-.07881.06671-.153331.104468-.22381.03779-.07057.07832-.136921.12182-.199372.04339-.0623.08958-.120476.138466-.17494.02473-.02755.05216-.05127.07826-.07685.04788-.04694.09776-.09091.150149-.131383.08865-.06846.181923-.130615.282949-.181312.128863-.06467.267627-.115225.415392-.15263.147768-.03741.304647-.06165.469928-.07366.08264-.0061.167153-.0088.253911-.0088.08672 0 .171648.0029.254264.0088.165231.01201.321845.03626.469575.07366.147728.03741.286559.08796.415392.15263.128836.06467.247708.14348.356253.237265h.000354c.0542.04684.105872.09782.154754.152276.293637.327136.489757.79357.569437 1.424659.02657.21036.04002.439152.04002.687008v2.974325h4.124178v-2.697042c0-.832865-.07785-1.598527-.233016-2.293337-.02585-.115789-.0538-.229556-.08394-.341378-.06024-.223644-.129171-.439107-.206458-.646638-.03864-.103763-.07928-.205583-.122175-.305259-.171555-.398724-.37709-.764579-.616182-1.096383-.05978-.08293-.121591-.163554-.185563-.242223v-.000354c-.127895-.157261-.26441-.305918-.409017-.445847-.217006-.209991-.452772-.400417-.707196-.5705-.339236-.226774-.711706-.417552-1.116921-.571209-.20261-.07683-.413129-.144476-.63212-.202561h-.000353c-.547384-.145171-1.145853-.231354-1.794723-.256036-.129793-.005-.261736-.0075-.395561-.0075zM21.92762894 1.8776219c-4.28263 0-6.622555 2.537702-6.622555 6.979164v14.434264c0 4.44147 2.339925 6.97916 6.622555 6.97916s6.622201-2.53769 6.622201-6.97916V8.8567859c0-4.441462-2.339571-6.979164-6.622201-6.979164zm0 3.965531c1.387897 0 2.260401.753261 2.260401 2.736348v14.988839c0 1.98309-.872504 2.736-2.260401 2.736-1.388138 0-2.260401-.75291-2.260403-2.736V8.5795009c0-1.983087.872265-2.736348 2.260403-2.736348zM31.36408694 2.5125749v27.757635h4.362155v-11.301645h1.506462c1.982605 0 2.854982.951931 2.854982 3.529255v7.77239h4.362154v-7.65306c0-2.894732-.713563-4.997099-2.894644-5.908985 1.942958-.911887 2.854629-2.775924 2.854629-5.630286v-2.181432c0-4.282632-1.942685-6.383872-6.463199-6.383872zm4.362155 3.965176h2.101397c1.546727 0 2.22074.87249 2.22074 2.855336v2.735996c0 2.220247-.991343 2.934307-2.617364 2.934307h-1.704773zM50.59467594 2.5125749l-4.441124 27.757635h4.00519l.753589-5.03641h5.352648l.753589 5.03641h4.402165l-4.441124-27.757635zm2.974322 4.916717l2.101397 14.037652h-4.202789zM63.44209394 2.5125749v27.757635h11.53857v-3.96517h-7.177125V2.5125749zM88.17249894 1.8776219c-4.242984 0-6.423888 2.537699-6.423888 6.979162 0 7.930179 8.525638 9.001622 8.525638 14.711556 0 1.9826-.87227 2.69634-2.2604 2.69634-1.38789 0-2.260399-.71374-2.260399-2.69634v-1.98276h-4.123825v1.70547c0 4.44123 2.220336 6.97916 6.503204 6.97916 4.282638 0 6.503218-2.53793 6.503218-6.97916 0-7.931138-8.525285-9.001598-8.525285-14.712256 0-1.982362.792827-2.735997 2.180717-2.735997 1.38791 0 2.18073.753635 2.18073 2.735997v1.150562h4.124188v-.872572c0-4.441463-2.18091-6.979162-6.423898-6.979162zM97.13264694 2.5125749v27.757635h4.36216v-10.429426h2.06209c4.36192 0 6.50321-2.418594 6.50321-6.85982v-3.608213c0-4.441465-2.14129-6.860176-6.50321-6.860176zm4.36216 3.96553h2.06174c1.38788 0 2.14177.634049 2.14177 2.616655v4.164196c0 1.982604-.75389 2.616653-2.14177 2.616653h-2.06174zM112.08146694 2.5125749v27.757635h4.36216v-11.301289h1.50645c1.98309 0 2.85536.951924 2.85536 3.529239v7.77205h4.36178V22.6175099c0-2.894986-.71344-4.996977-2.89428-5.909344 1.94295-.911403 2.85463-2.775552 2.85463-5.630641v-2.181077c0-4.28263-1.94269-6.383873-6.46319-6.383873zm4.36216 3.96553h2.1014c1.54648 0 2.22074.871655 2.22074 2.854982v2.736351c0 2.220485-.99123 2.934308-2.61702 2.934308h-1.70512zM143.44556694 2.5125749v27.757635h3.92552v-20.104211l5.43303 20.104211h4.48078V2.5125749h-3.88621v16.614997l-4.48114-16.614997zM181.74845694 1.8776219c-4.24299 0-6.42354 2.5377-6.42354 6.979162 0 7.930179 8.52563 9.00163 8.52563 14.711556 0 1.9826-.87275 2.69634-2.26039 2.69634-1.38767 0-2.26005-.71374-2.26005-2.69634v-1.98276h-4.12489v1.70547c0 4.44123 2.22116 6.97916 6.50427 6.97916 4.28263 0 6.50251-2.53793 6.50251-6.97916 0-7.931138-8.52564-9.001598-8.52564-14.712256 0-1.982362.79316-2.735997 2.18178-2.735997 1.38767 0 2.18037.753635 2.18037 2.735997v1.150562h4.12383v-.872572c0-4.441462-2.18042-6.979162-6.42388-6.979162zM166.56129694 1.8776219c-4.28238 0-6.50251 2.538058-6.50251 6.979517v14.433911c0 4.44123 2.22013 6.97916 6.50251 6.97916 4.28312 0 6.50463-2.53793 6.50463-6.97916v-8.80327h-6.10765v3.965175h1.98346v5.115035c0 1.98261-.87309 2.69669-2.26075 2.69669-1.3879 0-2.26076-.71408-2.26076-2.69669V8.5787939c0-1.98236.87286-2.735997 2.26076-2.735997 1.38766 0 2.26075.753637 2.26075 2.735997v2.974678h4.12419v-2.696333c0-4.441459-2.22151-6.979517-6.50463-6.979517zM131.10501694 4.0655399l-.64330114.3819676c-1.8675315-.78158308-3.90815717.36383624-3.90815717.36383624.45159208-1.0699928 1.1294637-1.44180684 1.1294637-1.44180684l.4895471-.12087582-.25988303-.1544793c1.1944949-.79367067 2.55628195-.70059629 2.55628195-.70059629 1.55518836-.02393341 2.46538333 1.18627535 2.46538333 1.18627535l.17768746-.32515597.76514397.2139502-.49534913-.50840371c.69987103-1.51360708 3.63884584-2.96024896 3.63884584-2.96024896-1.89847571 2.09671206-1.64536173 3.78147931-1.64536173 3.78147931 1.75680924-1.39539052 4.26159808-.11023875 4.26159808-.11023875 1.79476425.89665687 2.71269527 2.5185687 2.71269527 2.5185687-.6000276-.40372526-1.8464991-.74072706-1.98212178-.75039713-.13731494-.01015357-.82243911-.68584943-.82243911-.68584943l.4339442.59591782s.27414638.12184283-.1049202-.00072526c-.37689083-.12160108-.80648351-.08775585-.80648351-.08775585l-.29614577-.47866827.16028134.57464368c-.57416017-.15423756-1.42270846-.11434853-1.42270846-.11434853 1.01608218.294937 2.36940792 2.12813977 2.36940792 2.12813977l.39187943.50864547.27511337.439021c.51759029.86522915.77964907 2.3065525.77964907 2.3065525-.13707318-.21878525-1.19787942-.80624176-1.19787942-.80624176l-.01668086-.70132154-.18445651.56690762c-.0945249-.13658968-.56763288-.49970066-.56763288-.49970066l.19461008-.49220636-.51082124.39067067c-.2724541-.33192502-1.1799898-1.1855501-1.1799898-1.1855501.67932214 1.1275297.88239352 2.96750151.88239352 2.96750151-.3295075-.28019016-1.30642591-1.01608218-1.30642591-1.01608218l-.02659269-.879009-.19291781.7039808c-.22023576-.23764187-.69092622-.50719496-1.08570666-.70929934-.06092142.0524601-.12982064.09428314-.20210438.12885363.28720096 1.38692922 1.92893641 10.11899881.41194481 21.17671928h-2.87684463s2.7199478-14.22273307 1.38088542-20.06852972c-.30605759.99021476-.56134733 2.06939413-.56134733 2.06939413-.31161788-.52121656-.36891302-1.97994602-.36625375-3.05912538-.1085465-.1759952-.14529274-.39695621-.07518476-.60969766.02103239-.06527295.0524601-.12329335.08775584-.17672046.00991182-.29276125.01861488-.4764925.01861488-.4764925-.13368866-.00991182-.79657169.85531734-.79657169.85531734l-.46754769-.49970066.28961848.61404919c-.31282663.21322495-.70736533.67787162-.70736533.67787162l-.39091242-.61743371.29928855.9000414-.42741692.45376784-.29687103-.68995921.1025027 1.07893761s-.4535261 1.17394602-.58624775 1.47927835c-.13393041.30557409-.03384523.85918536-.03384523.85918536-.69672825-.74822135-.59857708-2.76926515-.41557109-3.64972466.1834895-.88215177.92663408-2.10275585.92663408-2.10275585-.27221236-.12280984-1.13961728-.02272465-1.13961728-.02272465l.02562568-.72211218-.28623396.77674805-.88843731.16535813-.12232634-.80769226-.14988602.89230534-.86643791.2054889-.09766767-.44941632-.17333593.63943312c-.25021296.12861187-1.37121536.65635573-1.69758009.9459742 1.04775165-3.27718537 3.4870258-3.67220756 3.4870258-3.67220756l-.15738032-.15472106c.8954481-.40469226 1.98429754-.33023275 1.98429754-.33023275l-.57657769-.2564985.31838693-.45207559"/>
</svg>