<svg class="logo" xmlns="http://www.w3.org/2000/svg" viewBox="0 0 97 82" width="97" height="82"><path fill="#dd3cf6" d="M60.35 8.81c16.32-3.23 13.76 3 13.76 3a23 23 0 0 1-2.29.81C69.1 9.64 60.35 8.81 60.35 8.81zM7.26 0a23.52 23.52 0 0 0 3.82 12.64l21.18 2.05 14.7-2.06-2.35-6.17-16.17-.59zm30.45 35-10.58-.58a36 36 0 0 0-8.38 11.47l8.38 11.32L46.97 38.8a50.55 50.55 0 0 1-9.26-3.8z"/><path fill="#dd3cf6" d="M55.59 27.48c-.38-7 4.76-18.67 4.76-18.67l5.29 11C64.17 24.51 63 38.48 63 38.48zm-.92 7.1 1.56 16.28 7.65 7.35-.88-19.7-8.33-3.93zm10.97-14.74c12.89-5.52 15.62-.74 15.62-.74 4.06-13.23-9.41-6.47-9.41-6.47a26.26 26.26 0 0 0-6.21 7.21zm-62.7 9.85 6.91-1.54 3.09-5L5 26.42a8.91 8.91 0 0 0-2.06 3.27zm5.51.39-2.86.86 4.26-2.79-1.4 1.93z"/><path fill="#ce4fe2" d="M12.42 14.69a38.92 38.92 0 0 0 7.35 9.12h18.38l12-5.15-3.22-6-14.67 2.03zm22.64 18.67a44.36 44.36 0 0 0 11.91 5.44l9.29-10.44-3-4.55-8.38 4.92zm8.03 9.03-2.59 13.8 15.55-7.68-.48-3.97-9.85-4.58-2.63 2.43zm20.79 15.82 12.79-12.42L63 38.51l.88 19.7zm7.94-45.58c-2.65-2.94-11.47-3.82-11.47-3.82l5.29 11c3.38-5.49 6.18-7.18 6.18-7.18z"/><path fill="#ce4fe2" d="M75.2 29.69a60.55 60.55 0 0 0-3.56-11.89 40.45 40.45 0 0 0-6 2A113.42 113.42 0 0 0 63 38.47zm-48.07 4.7L3.75 43.21l5.66 1.33 13.18-5.08a43.85 43.85 0 0 1 4.54-5.07zm-8.38 11.47a9.64 9.64 0 0 1-3.31 6.06l-1.18 8.86a50 50 0 0 0 12.87-3.6zm9.26 22.27 6.47-1.32c0 3 3.74 5.07 3.74 5.07l-3.7 3.24a63.29 63.29 0 0 1-6.51-6.99zm-20-12.86a98.32 98.32 0 0 1-1.17 13.67h6.25c-1.47-1.47 1.17-8.16 1.17-8.16zm73.25 4.92.29-5.62a19.39 19.39 0 0 1-9.62 0z"/><path fill="#a000b9" d="M22.13 25.28a51.1 51.1 0 0 0 10.13 6.91l12.64-3.46 8.36-4.92-3.1-5.15-12 5.15zm7.81 29.29c6.59 4.08 17 6.87 17 6.87l9.32-10.58-.18-2.35-15.58 7.68 2.59-13.8zM11.76 40.19c-5.66.45-7.64-.73-7.64-.73L0 38.8c.37 2 3.75 4.41 3.75 4.41zM6.84 68.94h6.25l-2.84 4.12-3.41-4.12zm20.93-12.36.24 11.55 6.47-1.32-6.71-10.23zM62.17 64l3.55 9.46 4.85-3.89c-5.96-2.1-8.4-5.57-8.4-5.57zm19.42-9.43.37-6.21-5.29-2.57-4.7 8.78c4.29 1.29 9.62 0 9.62 0zm-8.33 12.74 3.22 2.63c1.45-1 4-.38 4-.38 3.66-5.76 6.54-.19 6.54-.19-.13 1.15-2.18.06-2.18.06-2.42.57-1.61 1.2-1.61 1.2C88.26 72 85.98 75 85.98 75a3.63 3.63 0 0 1-2.59-2.25c-3.52 0-.86 1.8-.86 1.8 1.55 5.38-1.6 4.82-1.6 4.82a4 4 0 0 1-.45-3.66c-2.06-2.49-2.84.25-2.84.25.88 4.88-2.1 2.29-2.1 2.29a5.52 5.52 0 0 1 .13-5.25c-1.78-.91-4.6-4.08-4.6-4.08m-32.81 2.96c10.81-3.75 8.55.7 8.55.7-1.93-.15-3.68-.11-3.68-.11-3.13 1.1 2.56 3.23 2.56 3.23 2.63 4.34-.88 3-.88 3-.79-1.54-1.55-1.54-1.55-1.54-3.53-1-1.3.89-1.3.89 1.17 2.94-2.82 5.13-2.42 3.34a5.34 5.34 0 0 0-.76-3.82 14.81 14.81 0 0 1-4.22-2.42"/><path fill="#a000b9" d="M13.09 68.94c11.34 1.45 6.49 4 6.49 4-1.66-1-3.25-1.74-3.25-1.74-3.29-.4.56 4 .56 4 .42 5-2.15 2.43-2.15 2.43a4.54 4.54 0 0 0-.36-2.23c-2.7-2.49-2.18-.34-2.18-.34-.25 3.15-4.71 3.33-3.56 1.91a9 9 0 0 0 1.62-4"/><path fill="#c900e8" d="M81.85 50.34h3.54c.73-1.53 3.25-2.39 3.25-2.39-.07-6.56 5.56-3.58 5.56-3.58.53 1-1.86 1.2-1.86 1.2-1.78 1.72-.72 1.8-.72 1.8 5.16-1.54 4.9 2.1 4.9 2.1a4 4 0 0 1-3.51-.46c-3 1.85.26 1.9.26 1.9 4.37 3.53 1.33 4.72 1.33 4.72a3.86 3.86 0 0 1-2.45-2.71c-3.18-.93-2.32 1.69-2.32 1.69 3.51 3.47-.53 2.94-.53 2.94a5.24 5.24 0 0 1-2.85-4.3c-2 .2-4.78.19-4.78.19M51.9 33.25l-6.18 6.71 9.85 4.58-.61-9.66-3.06-1.63zM63 38.51l12.2-8.82a86.67 86.67 0 0 1 1.47 16.1zm-6.74 12.35-9.29 10.58a57 57 0 0 0 14.29 1.47 24.17 24.17 0 0 1-5-12.05zm4.09-42.05c1.72-6.17 3.44-.57 3.44-.57a34.9 34.9 0 0 0-3.44.57zM9.85 28.15l-3.79 2.48-.47.31a15.79 15.79 0 0 0-1.47 8.52L0 38.8l2.94-9.11zM8.01 55.27l6.25 5.51 1.18-8.86-7.43 3.35zm19.76 1.31 2.17-2C36.46 58.21 39.5 59 39.5 59a23.23 23.23 0 0 1-5 7.79zm42.8.6 6.1-11.39-5.78 5.61a34.66 34.66 0 0 0-.32 5.78z"/><path fill="#c900e8" d="m51.9 33.25 4.36-4.89 6.77 10.15a165.23 165.23 0 0 1-11.13-5.26z"/><path fill="#be00db" d="M70.89 51.4c-1.57 12.4 3.2 15 3.2 15l-3.52 3.09c-12.79-3.93-14.31-18.63-14.31-18.63l7.65 7.35z"/><path fill="#fff" d="M70.04 11.32a3.78 3.78 0 0 1 3.78.5l-2.09.81a7.53 7.53 0 0 0-1.69-1.31z"/><path d="M62.91 38.51C28.74 24.67 28.45 5.87 28.45 5.87l16.13.59C45.95 14 62.91 38.51 62.91 38.51z" opacity=".11"/></svg>