<svg xmlns:dc="http://purl.org/dc/elements/1.1/" xmlns:cc="http://creativecommons.org/ns#" xmlns:rdf="http://www.w3.org/1999/02/22-rdf-syntax-ns#" xmlns:svg="http://www.w3.org/2000/svg" xmlns="http://www.w3.org/2000/svg" height="127" width="953" xml:space="preserve" version="1.1" style=""><rect id="backgroundrect" width="100%" height="100%" x="0" y="0" fill="none" stroke="none"/><metadata id="metadata8"><rdf:RDF><cc:Work rdf:about=""><dc:format>image/svg+xml</dc:format><dc:type rdf:resource="http://purl.org/dc/dcmitype/StillImage"/></cc:Work></rdf:RDF></metadata><defs id="defs6"/><g class="currentLayer" style=""><title>Layer 1</title><g id="g10" class=""><g id="g12" stroke-width="0"><path id="path14" style="fill:#ffffff;fill-opacity:1;fill-rule:nonzero;stroke:none" d="m364.6944086229828,49.00480858582992 l5.653333192000001,-43.0346655908 l44.5959988851,-5.7013331908 l77.1546647378,97.94533088470001 l0.003999999900000002,28.3319992917 l-27.6999993075,0.5946666518000001 z" stroke-width="0"/></g><g id="g16" stroke-width="0"><path id="path18" style="fill:#ffffff;fill-opacity:1;fill-rule:nonzero;stroke:none" d="m455.22358116444093,-0.0000017938674830020318 l43.0346655908,5.653333192000001 l5.7013331908,44.5959988851 l-97.94533088470001,77.1546647378 l-28.3319992917,0.003999999900000002 l-0.5946666518000001,-27.6999993075 z" stroke-width="0"/></g><g id="g20" stroke-width="0"><path id="path22" style="fill:#ffffff;fill-opacity:1;fill-rule:nonzero;stroke:none" d="M4.2263489774541085e-7,101.537333924535 V35.146668917635 H16.129333352734903 V87.56533427383499 h25.693332691000002 L41.8226660437349,101.537333924535 z" stroke-width="0"/></g><g id="g24" stroke-width="0"><path id="path26" style="fill:#ffffff;fill-opacity:1;fill-rule:nonzero;stroke:none" d="M86.83213122709199,101.537333924535 V35.146668917635 H131.46813011119198 V48.649335246735006 H102.304130840292 V61.214668265935 H129.873463484392 V74.06266794473501 H102.304130840292 V87.84666760013499 H133.156130068992 L133.156130068992,101.537333924535 z" stroke-width="0"/></g><g id="g28" stroke-width="0"><path id="path30" style="fill:#ffffff;fill-opacity:1;fill-rule:nonzero;stroke:none" d="m197.10745806005252,48.83747053662796 v13.690666324400002 h25.693332691000002 v13.221333002800002 H197.10745806005252 V101.53746921912796 H181.2594584562525 V35.14680421222796 H224.95812403045255 V48.83747053662796 z" stroke-width="0"/></g><g id="g32" stroke-width="0"><path id="path34" style="fill:#ffffff;fill-opacity:1;fill-rule:nonzero;stroke:none" d="M301.1940033094513,48.83747053662796 V101.53746921912796 H285.1593370436513 V48.83747053662796 H266.40467084585134 V35.14680421222796 H319.94866950725134 L319.94866950725134,48.83747053662796 z" stroke-width="0"/></g><g id="g36" stroke-width="0"><path id="path38" style="fill:#ffffff;fill-opacity:1;fill-rule:nonzero;stroke:none" d="M572.2617048660919,52.86934095991974 L563.823038410392,75.65600705691975 H580.5137046597919 zm17.8159995546,48.6679987833 l-5.1573332044,-13.033333007500001 H559.2283718585919 l-4.877333211400001,13.033333007500001 H536.9097057498919 L564.7603717202919,35.14667473631974 H580.3270379977919 l27.5693326441,66.39066500690001 z" stroke-width="0"/></g><g id="g40" stroke-width="0"><path id="path42" style="fill:#ffffff;fill-opacity:1;fill-rule:nonzero;stroke:none" d="M650.9362227559998,101.537333924535 V35.146668917635 H667.0655556860997 V87.56533427383499 h25.693332691000002 L692.7588883770998,101.537333924535 z" stroke-width="0"/></g><path id="path44" style="fill:#ffffff;fill-opacity:1;fill-rule:nonzero;stroke:none" d="m737.7681170695774,35.14653720377109 h16.1293329301 V101.5372022106711 h-16.1293329301 z" stroke-width="0"/><g id="g46" stroke-width="0"><path id="path48" style="fill:#ffffff;fill-opacity:1;fill-rule:nonzero;stroke:none" d="m838.0092161260499,101.537333924535 h-16.034666265800002 l-25.1306660384,-66.39066500690001 h18.0039995499 L830.2265496539499,82.22000107413501 h0.37466665730000015 L845.8865492624499,35.146668917635 H863.6092154860498 z" stroke-width="0"/></g><g id="g50" stroke-width="0"><path id="path52" style="fill:#ffffff;fill-opacity:1;fill-rule:nonzero;stroke:none" d="M906.5560080321717,101.537333924535 V35.146668917635 H951.1920069162718 V48.649335246735006 H922.0280076453716 V61.214668265935 H949.5973402894717 V74.06266794473501 H922.0280076453716 V87.84666760013499 H952.8800068740718 L952.8800068740718,101.537333924535 z" stroke-width="0"/></g></g></g></svg>